<?xml version="1.0" encoding="UTF-8" standalone="no"?>
<!-- Created with Inkscape (http://www.inkscape.org/) -->

<svg
   width="32.517334mm"
   height="28.442711mm"
   viewBox="0 0 32.517334 28.442711"
   version="1.1"
   id="svg5"
   xml:space="preserve"
   sodipodi:docname="cart-icon.svg"
   inkscape:version="1.3.2 (1:1.3.2+202311252150+091e20ef0f)"
   xmlns:inkscape="http://www.inkscape.org/namespaces/inkscape"
   xmlns:sodipodi="http://sodipodi.sourceforge.net/DTD/sodipodi-0.dtd"
   xmlns="http://www.w3.org/2000/svg"
   xmlns:svg="http://www.w3.org/2000/svg"><sodipodi:namedview
     id="namedview7"
     pagecolor="#ffffff"
     bordercolor="#000000"
     borderopacity="0.25"
     inkscape:showpageshadow="2"
     inkscape:pageopacity="0.0"
     inkscape:pagecheckerboard="0"
     inkscape:deskcolor="#d1d1d1"
     inkscape:document-units="mm"
     showgrid="false"
     inkscape:zoom="0.36925856"
     inkscape:cx="839.52015"
     inkscape:cy="138.1146"
     inkscape:window-width="1850"
     inkscape:window-height="1016"
     inkscape:window-x="0"
     inkscape:window-y="0"
     inkscape:window-maximized="1"
     inkscape:current-layer="layer1" /><defs
     id="defs2" /><g
     inkscape:label="Camada 1"
     inkscape:groupmode="layer"
     id="layer1"
     transform="translate(-336.98862,60.795542)"><path
       d="m 338.02051,-58.705334 c -0.55562,0 -1.03187,-0.47625 -1.03187,-1.05833 0,-0.55563 0.47625,-1.03188 1.03187,-1.03188 h 2.69875 c 0.0265,0 0.0794,0 0.10584,0 0.9525,0.0265 1.79916,0.21167 2.51354,0.66146 0.79375,0.50271 1.37583,1.27 1.69333,2.40771 0,0.0265 0,0.0529 0.0265,0.0794 l 0.26459,1.05833 h 23.15104 c 0.58208,0 1.03187,0.47625 1.03187,1.03187 0,0.10584 -0.0265,0.21167 -0.0529,0.3175 l -2.69875,10.87438 c -0.10583,0.47625 -0.52916,0.79375 -1.00541,0.79375 v 0 h -16.93333 c 0.37041,1.37583 0.74083,2.11667 1.24354,2.46062 0.60854,0.39688 1.66687,0.42334 3.43958,0.39688 h 0.0265 v 0 h 11.95917 c 0.58208,0 1.03187,0.47625 1.03187,1.03187 0,0.58209 -0.47625,1.03188 -1.03187,1.03188 H 353.5251 v 0 c -2.19604,0.0265 -3.54542,-0.0265 -4.63021,-0.74083 -1.11125,-0.74084 -1.69333,-2.01084 -2.27542,-4.31271 v 0 l -3.54541,-13.41438 c 0,-0.0265 0,-0.0265 -0.0265,-0.0529 -0.15875,-0.58209 -0.42334,-0.97896 -0.79375,-1.19063 -0.37042,-0.23812 -0.87313,-0.34396 -1.45521,-0.34396 -0.0265,0 -0.0529,0 -0.0794,0 z m 24.36813,21.272502 c 1.40229,0 2.54,1.137709 2.54,2.54 0,1.402292 -1.13771,2.54 -2.54,2.54 -1.40229,0 -2.54,-1.137708 -2.54,-2.54 0,-1.402291 1.13771,-2.54 2.54,-2.54 z m -11.13896,0 c 1.40229,0 2.54,1.137709 2.54,2.54 0,1.402292 -1.13771,2.54 -2.54,2.54 -1.40229,0 -2.54,-1.137708 -2.54,-2.54 0,-1.402291 1.13771,-2.54 2.54,-2.54 z m -5.34458,-17.092082 2.35479,8.86354 h 16.69521 l 2.19604,-8.86354 z"
       id="path4164"
       style="fill:#000000;fill-opacity:1;stroke-width:0.264583" /></g></svg>
