<?xml version="1.0" encoding="UTF-8" standalone="no"?>
<!-- Created with Inkscape (http://www.inkscape.org/) -->

<svg
   width="13.217523mm"
   height="12.119743mm"
   viewBox="0 0 13.217523 12.119743"
   version="1.1"
   id="svg1"
   xml:space="preserve"
   xmlns="http://www.w3.org/2000/svg"
   xmlns:svg="http://www.w3.org/2000/svg"><defs
     id="defs1" /><g
     id="layer1"
     transform="translate(37.838674,38.191691)"><path
       style="fill:#d40000"
       d="m -31.544219,-26.320801 c -1.07979,-0.867857 -1.745036,-1.432795 -2.496592,-2.120151 -0.625785,-0.572327 -1.266943,-1.213357 -1.732005,-1.731658 -1.179375,-1.314386 -1.82609,-2.435522 -2.005078,-3.475974 -0.05183,-0.301274 -0.06027,-0.437054 -0.06075,-0.977486 -4.91e-4,-0.551818 0.004,-0.61388 0.06573,-0.89848 0.146157,-0.674351 0.517753,-1.328048 1.026926,-1.806531 0.494568,-0.464757 1.092489,-0.745667 1.78974,-0.84084 0.172727,-0.02358 0.605085,-0.02679 0.76619,-0.0057 0.518619,0.06791 1.040408,0.276884 1.499305,0.600458 0.502906,0.354605 0.97392,0.843964 1.330668,1.382496 0.05637,0.08509 0.108693,0.164021 0.116272,0.175391 0.01347,0.02021 0.01409,0.02021 0.02756,0 0.0076,-0.01137 0.0599,-0.0903 0.116273,-0.175391 0.356748,-0.538532 0.827761,-1.027891 1.330667,-1.382496 0.458898,-0.323574 0.980687,-0.532546 1.499306,-0.600458 0.161105,-0.0211 0.593463,-0.01788 0.766189,0.0057 0.262383,0.03581 0.488705,0.09083 0.716495,0.174186 1.005347,0.367868 1.809773,1.29066 2.079067,2.38499 0.07979,0.324239 0.08689,0.403305 0.0871,0.970139 1.99e-4,0.525078 -0.0062,0.642191 -0.05098,0.926042 -0.152738,0.969304 -0.672687,1.952479 -1.652853,3.12539 -0.832116,0.995749 -2.059198,2.177777 -3.554573,3.424063 -0.431986,0.360029 -1.343241,1.097615 -1.353015,1.095154 -0.0016,-4.12e-4 -0.141881,-0.112392 -0.311655,-0.248844 z"
       id="path1" /></g></svg>
