<?xml version="1.0" encoding="UTF-8" standalone="no"?>
<!-- Created with Inkscape (http://www.inkscape.org/) -->

<svg
   width="14.287532mm"
   height="13.186045mm"
   viewBox="0 0 14.287532 13.186045"
   version="1.1"
   id="svg1"
   xml:space="preserve"
   xmlns="http://www.w3.org/2000/svg"
   xmlns:svg="http://www.w3.org/2000/svg"><defs
     id="defs1" /><g
     id="layer1"
     transform="translate(-272.8314,-17.270753)"><path
       style="fill:none;stroke:#ffffff;stroke-width:1.05833;stroke-dasharray:none"
       d="m 279.66054,29.688524 c -1.08074,-0.86862 -1.74657,-1.434056 -2.49879,-2.122017 -0.62634,-0.572831 -1.26806,-1.214426 -1.73353,-1.733183 -1.18041,-1.315542 -1.8277,-2.437667 -2.00684,-3.479034 -0.0519,-0.301538 -0.0603,-0.437438 -0.0608,-0.978345 -5e-4,-0.552305 0.004,-0.614421 0.0658,-0.899273 0.14628,-0.674943 0.51821,-1.329217 1.02783,-1.80812 0.495,-0.465167 1.09345,-0.746324 1.79131,-0.84158 0.17288,-0.0236 0.60562,-0.02681 0.76687,-0.0057 0.51907,0.06797 1.04132,0.277128 1.50062,0.600986 0.50335,0.354917 0.97478,0.844708 1.33184,1.383713 0.0564,0.08517 0.10879,0.164166 0.11638,0.175546 0.0135,0.02023 0.0141,0.02023 0.0276,0 0.008,-0.01138 0.06,-0.09038 0.11638,-0.175546 0.35706,-0.539005 0.82849,-1.028796 1.33184,-1.383713 0.4593,-0.323858 0.98155,-0.533014 1.50062,-0.600986 0.16125,-0.02112 0.59399,-0.0179 0.76687,0.0057 0.26261,0.03585 0.48913,0.09091 0.71712,0.174339 1.00623,0.368191 1.81137,1.291796 2.0809,2.387089 0.0799,0.324524 0.087,0.40366 0.0872,0.970993 1.8e-4,0.525541 -0.006,0.642758 -0.051,0.926858 -0.15288,0.970156 -0.67328,1.954197 -1.65431,3.128141 -0.83285,0.996626 -2.06101,2.179694 -3.5577,3.427077 -0.43237,0.360346 -1.34443,1.098581 -1.35421,1.096118 -0.002,-4.34e-4 -0.14201,-0.11249 -0.31193,-0.249063 z"
       id="path1-2" /></g></svg>
