<?xml version="1.0" encoding="UTF-8" standalone="no"?>
<!-- Created with Inkscape (http://www.inkscape.org/) -->

<svg
   width="628.09027mm"
   height="485.59335mm"
   viewBox="0 0 628.09027 485.59335"
   version="1.1"
   id="svg1"
   xml:space="preserve"
   xmlns:inkscape="http://www.inkscape.org/namespaces/inkscape"
   xmlns:sodipodi="http://sodipodi.sourceforge.net/DTD/sodipodi-0.dtd"
   xmlns="http://www.w3.org/2000/svg"
   xmlns:svg="http://www.w3.org/2000/svg"><sodipodi:namedview
     id="namedview1"
     pagecolor="#ffffff"
     bordercolor="#000000"
     borderopacity="0.25"
     inkscape:showpageshadow="2"
     inkscape:pageopacity="0.0"
     inkscape:pagecheckerboard="0"
     inkscape:deskcolor="#d1d1d1"
     inkscape:document-units="mm" /><defs
     id="defs1" /><g
     inkscape:label="Layer 1"
     inkscape:groupmode="layer"
     id="layer1"
     transform="translate(-500.80668,0.98321459)"><path
       style="fill:#000000"
       d="m 914.13427,484.37626 c -2.66447,-0.4472 -5.27892,-1.4596 -12.08081,-4.678 -11.58686,-5.4826 -16.95273,-7.802 -25.17041,-10.8802 -26.26121,-9.837 -54.42735,-15.7973 -98.91918,-20.9327 -13.73343,-1.5851 -50.55907,-5.4102 -56.35625,-5.8536 -3.0041,-0.2299 -8.17034,-0.2535 -19.31458,-0.089 -8.36745,0.1238 -21.28573,0.2288 -28.70729,0.2332 -14.55234,0.01 -16.27418,-0.1045 -24.47396,-1.6088 -12.63652,-2.3183 -23.63282,-6.6954 -33.84365,-13.4717 -10.01008,-6.643 -15.7826,-15.4444 -19.4284,-29.6227 -1.9928,-7.7499 -2.76465,-12.4252 -2.99209,-18.124 -0.3043,-7.6243 0.41134,-13.8451 3.34813,-29.1041 2.6585,-13.8131 2.99594,-16.3655 2.84885,-21.5485 -0.10172,-3.5841 -0.21351,-4.4882 -0.71496,-5.7822 -1.40244,-3.61895 -8.76705,-11.35819 -29.38664,-30.88148 -28.54535,-27.02767 -42.02113,-41.93171 -52.14827,-57.67534 -9.67036,-15.03352 -13.91457,-27.0756 -15.49471,-43.96305 -0.58023,-6.20103 -0.67432,-27.55799 -0.14494,-32.8984 2.81342,-28.38209 11.98676,-51.87974 28.35357,-72.628126 13.20422,-16.73912 33.44554,-33.2151 58.35206,-47.49724 37.81857,-21.6863 79.0698,-34.1836298 125.01563,-37.87432977 7.08904,-0.56944003 32.09878,-0.65354003 39.42292,-0.13256 52.45876,3.73149997 98.28675,20.83186977 135.20209,50.44963977 9.89581,7.93958 21.07113,18.96174 29.37159,28.96907 4.78478,5.7687 10.9455,14.29565 15.86639,21.960416 1.0744,1.67349 2.19984,3.32495 2.50097,3.66991 0.89571,1.02609 2.52922,1.6294 14.70272,5.43018 12.98182,4.05315 19.69405,6.69576 29.60459,11.65532 9.60354,4.80593 17.62318,9.67238 27.27486,16.55084 14.5068,10.33849 30.5757,24.24587 42.4421,36.73284 15.9144,16.74667 26.0018,32.89385 32.7223,52.37946 2.5289,7.33237 3.9381,12.93667 7.2411,28.79643 3.2502,15.60673 4.0881,18.62782 6.4339,23.19883 1.4065,2.7407 1.6014,2.90369 8.6179,7.20888 5.6709,3.47956 8.0226,5.20799 10.8289,7.95885 7.5895,7.4397 11.6552,16.22032 13.3372,28.80456 0.3456,2.5856 0.4571,5.2688 0.4509,10.8441 -0.023,20.6988 -4.2748,36.9002 -13.1925,50.2708 -2.9347,4.4002 -4.7166,6.5831 -8.7174,10.6794 -9.7364,9.9686 -21.9095,17.1724 -37.849,22.3981 -6.0854,1.9951 -11.4047,3.295 -22.7465,5.5589 -14.3648,2.8673 -19.622,3.7595 -24.24,4.1139 -5.1605,0.396 -14.5789,0.1845 -17.8365,-0.4005 -5.58473,-1.0031 -13.34063,-3.2618 -20.62234,-6.0058 -1.88344,-0.7098 -3.51804,-1.1969 -3.63243,-1.0825 -0.4539,0.4539 -2.55605,5.6851 -6.08471,15.1417 -6.46638,17.3295 -8.63219,22.1295 -12.89117,28.57 -1.8894,2.8573 -6.33804,7.4792 -9.41605,9.7829 -7.69516,5.7594 -17.9771,10.1813 -26.4637,11.381 -2.17523,0.3075 -9.22756,0.3044 -11.07023,0 z m 10.27715,-36.7818 c 1.71599,-0.7143 6.21704,-3.2919 6.21704,-3.5602 0,-0.2303 -14.06559,-9.4327 -17.99167,-11.7709 -31.19012,-18.5761 -68.3975,-31.7915 -107.95,-38.3421 -9.86141,-1.6333 -15.78771,-2.3681 -30.82396,-3.8221 -0.58208,-0.056 0.31089,-0.054 1.98438,0.01 6.66949,0.2351 22.13055,1.9074 32.80833,3.5488 45.94089,7.0621 88.26586,21.8793 121.73108,42.6159 1.84856,1.1454 3.43192,2.0826 3.51859,2.0826 0.40284,0 1.62277,-3.0931 8.49988,-21.5517 4.19227,-11.2523 8.0171,-18.655 12.16507,-23.5445 0.83788,-0.9877 1.41469,-1.8714 1.28179,-1.9639 -0.13289,-0.092 -2.55855,-1.8275 -5.39036,-3.8558 -53.97473,-38.6599 -114.85461,-65.70333 -176.86334,-78.56443 -27.58851,-5.72208 -53.78508,-8.64693 -81.22709,-9.06903 -13.99843,-0.21532 -25.70704,0.22933 -39.91073,1.51565 -3.32423,0.30106 -6.09309,0.49834 -6.15301,0.43841 -0.14213,-0.14212 9.29253,-1.14922 15.37207,-1.64088 17.05857,-1.37955 38.29402,-1.47663 56.88542,-0.26004 74.82,4.89609 148.30919,28.20232 213.75445,67.78962 8.67177,5.2455 17.57766,11.0179 25.93837,16.8121 3.12005,2.1623 3.46801,2.3391 3.96875,2.0171 5.07956,-3.2664 9.32066,-4.5234 15.2021,-4.5054 4.82926,0.015 6.17045,0.3431 15.24468,3.7331 7.50764,2.8047 11.48514,4.1523 14.94894,5.065 1.981,0.522 2.8954,0.5922 7.6729,0.5897 6.0852,0 5.7594,0.042 20.7515,-2.9125 18.3816,-3.6229 24.6825,-5.4374 32.4782,-9.3525 17.2994,-8.6882 24.5652,-21.9271 24.6169,-44.8535 0.012,-5.3795 -0.3003,-8.4047 -1.1527,-11.16467 -0.6864,-2.22218 -1.8824,-3.40425 -6.0001,-5.93029 -10.1073,-6.20037 -14.2773,-9.62313 -18.1751,-14.91827 -2.5827,-3.50847 -4.6081,-7.36188 -6.8626,-13.05629 -2.6135,-6.60133 -3.6246,-10.56843 -7.5636,-29.67527 -2.4526,-11.89674 -4.1559,-18.12075 -6.8063,-24.87083 -5.1232,-13.04758 -12.7619,-24.42832 -24.3986,-36.35071 -18.9552,-19.42061 -40.87917,-36.08144 -59.40736,-45.14582 -7.94563,-3.88716 -13.8501,-6.17834 -23.58223,-9.15088 -3.18259,-0.97207 -5.82621,-1.86954 -5.87472,-1.99437 -0.0485,-0.12484 -0.49881,-0.22697 -1.00068,-0.22697 -1.31184,0 -2.2251,-0.44284 -7.71691,-3.74188 l -4.91438,-2.95218 -5.56209,0.31241 c -14.19344,0.79722 -27.2435,3.42356 -42.89483,8.63265 -8.58858,2.85845 -13.92779,5.01439 -28.14205,11.36358 -2.81782,1.25865 -5.19907,2.21081 -5.29167,2.11591 -0.0926,-0.0949 1.22649,-1.52095 2.9313,-3.16899 10.58394,-10.23148 29.76002,-20.83109 47.64673,-26.33681 3.94037,-1.21288 11.77557,-3.1874 14.68311,-3.70023 1.39783,-0.24655 1.89255,-0.43662 1.7954,-0.68979 -0.34435,-0.89737 -7.57049,-11.524 -10.40707,-15.30446 -16.45357,-21.928536 -36.37342,-38.518326 -61.44804,-51.175566 -38.65466,-19.51223 -85.6272,-26.64331 -133.35001,-20.24437 -40.74658,5.46352 -78.29282,19.76974 -110.99271,42.29149 -32.5699,22.432206 -47.94289,46.242406 -51.60559,79.928446 -1.19265,10.96881 -0.50701,30.30475 1.33223,37.57083 2.756,10.88777 10.55681,23.14706 25.17213,39.55899 5.07492,5.69878 14.47601,15.04519 29.99602,29.82158 25.53094,24.30765 31.79331,31.16175 36.08579,39.49547 4.26897,8.28806 5.8488,16.86137 5.20507,28.24639 -0.32523,5.7519 -0.92068,9.7666 -3.28629,22.1567 -3.58176,18.7599 -3.7328,21.6382 -1.59528,30.4001 1.48006,6.0669 2.40087,8.5438 3.60917,9.7086 1.02372,0.9868 4.71606,3.2964 7.481,4.6795 l 2.65258,1.3268 5.02034,-1.2967 c 17.49667,-4.5191 30.42618,-6.5187 46.23827,-7.151 11.6591,-0.4661 20.27439,0.093 35.51123,2.3064 28.30357,4.1108 54.66866,10.1782 84.46902,19.4389 7.44972,2.315 9.44608,2.8101 18.05703,4.4781 31.96374,6.1913 56.62849,14.1579 82.54973,26.6632 5.54172,2.6735 5.20295,2.6312 8.86448,1.1069 z m 83.84898,-88.8321 c -5.5134,-1.8879 -11.1907,-5.6426 -16.44087,-10.8734 -1.61352,-1.6075 -3.48944,-3.7588 -4.16872,-4.7806 -0.67928,-1.0218 -2.58991,-4.6457 -4.24584,-8.0531 -1.65594,-3.4074 -3.10844,-6.2556 -3.22778,-6.3294 -0.11934,-0.074 -2.5566,0.4451 -5.41612,1.1531 -2.85953,0.7079 -8.27393,1.9188 -12.03202,2.6907 l -6.83288,1.4036 h -12.17083 c -11.90484,0 -14.5253,-0.1193 -23.9448,-1.0709 -21.87456,-2.21 -50.40903,-8.1179 -78.05208,-16.16048 -39.85156,-11.59453 -76.91425,-31.82843 -110.19896,-60.16172 -3.94526,-3.35837 -2.84133,-3.20819 -9.97901,-1.35752 -16.5062,4.27977 -29.4567,6.62975 -46.37724,8.41552 -5.72311,0.60401 -29.69855,0.70646 -34.26355,0.14641 -16.95706,-2.08035 -28.56041,-5.19782 -38.50095,-10.34406 -5.37999,-2.78523 -11.315,-6.98767 -13.03313,-9.22846 -0.64119,-0.83624 -0.54705,-0.80503 2.99824,0.99386 11.69223,5.93267 24.72215,9.20029 41.23855,10.34172 5.73051,0.39603 21.20259,0.17218 27.27333,-0.39458 14.07718,-1.31425 27.89247,-3.65908 43.78855,-7.43212 6.32476,-1.50122 12.65519,-3.17399 12.88632,-3.40512 0.0767,-0.0767 -2.277,-2.67557 -5.23038,-5.77533 -9.62829,-10.10545 -15.5699,-17.09937 -20.74687,-24.42133 -5.54936,-7.84865 -8.54318,-13.78938 -7.20744,-14.30196 1.1101,-0.42598 3.2902,1.29838 17.91461,14.16967 10.3234,9.08586 14.60154,12.76382 19.71397,16.94831 39.02333,31.94037 77.69333,53.93834 118.26875,67.27883 3.34698,1.10043 10.49073,3.30399 15.875,4.8968 35.374,10.46458 57.8367,15.71419 82.16768,19.20288 10.81835,1.55118 12.62984,1.68468 27.20956,2.00518 6.75133,0.1484 12.72207,0.3412 13.26832,0.4286 l 0.99316,0.1588 -0.13786,-2.74147 c -0.14558,-2.89489 0.21944,-7.23906 0.88619,-10.54668 0.91833,-4.55573 3.5802,-11.14894 6.43815,-15.94669 1.4987,-2.51594 3.6492,-5.3744 3.87411,-5.1495 0.0527,0.0527 -0.56075,1.922 -1.36324,4.15397 -3.14112,8.73642 -4.52531,14.55524 -4.78839,20.1293 -0.24437,5.17775 0.44667,9.15967 3.11206,17.93237 2.58105,8.4951 4.36337,11.5617 9.80435,16.8691 4.36116,4.2542 6.91226,6.1322 11.72966,8.6349 1.6007,0.8317 2.6723,1.5155 2.3813,1.5198 -0.2911,0 -1.8494,-0.4444 -3.4629,-0.9969 z"
       id="path3"
       inkscape:export-filename="./path3.png"
       inkscape:export-xdpi="96"
       inkscape:export-ydpi="96" /></g></svg>
