<?xml version="1.0" encoding="UTF-8" standalone="no"?>
<!-- Created with Inkscape (http://www.inkscape.org/) -->

<svg
   width="135.18468mm"
   height="131.95319mm"
   viewBox="0 0 135.18468 131.95319"
   version="1.1"
   id="svg1"
   xml:space="preserve"
   xmlns="http://www.w3.org/2000/svg"
   xmlns:svg="http://www.w3.org/2000/svg"><defs
     id="defs1" /><g
     id="layer1"
     transform="translate(-45.61342,-73.614042)"><g
       id="g1"
       transform="translate(8.3300929,-8.7722601)"
       style="fill:#000000"><path
         style="fill:#000000;fill-opacity:1"
         d="m 64.276133,214.20602 c 0.181901,-0.0734 0.479558,-0.0734 0.661459,0 0.181901,0.0734 0.03307,0.13345 -0.330729,0.13345 -0.363803,0 -0.512631,-0.0601 -0.33073,-0.13345 z m 3.575513,-0.0146 c 0.402184,-0.0608 0.997496,-0.0592 1.322917,0.004 0.325421,0.0628 -0.0036,0.11256 -0.731242,0.11058 -0.727604,-0.002 -0.993858,-0.0534 -0.591675,-0.11419 z m 72.760414,0 c 0.40219,-0.0608 0.9975,-0.0592 1.32292,0.004 0.32542,0.0628 -0.004,0.11256 -0.73124,0.11058 -0.72761,-0.002 -0.99386,-0.0534 -0.59168,-0.11419 z m 4.09741,0.0146 c 0.1819,-0.0734 0.47955,-0.0734 0.66146,0 0.1819,0.0734 0.0331,0.13345 -0.33073,0.13345 -0.36381,0 -0.51263,-0.0601 -0.33073,-0.13345 z m -85.428023,-1.87529 c -0.329108,-0.41964 -0.319749,-0.429 0.09989,-0.0999 0.254661,0.19972 0.463021,0.40808 0.463021,0.46303 0,0.21776 -0.217272,0.0776 -0.562916,-0.36313 z m 32.700696,-14.22136 c 4.3e-5,-7.7126 0.03383,-10.82961 0.07509,-6.92669 0.04126,3.90292 0.04122,10.21323 -7.9e-5,14.02292 -0.0413,3.80968 -0.07505,0.61638 -0.07501,-7.09623 z m 59.164357,11.61962 c 0.0127,-0.30822 0.0754,-0.37092 0.15985,-0.15985 0.0764,0.191 0.067,0.4192 -0.0209,0.50712 -0.0879,0.0879 -0.15046,-0.0683 -0.13897,-0.34727 z M 58.383874,184.08646 c -1.5e-5,-13.82448 0.03209,-19.51874 0.07135,-12.65392 0.03926,6.86483 0.03927,18.17577 2.6e-5,25.13542 -0.03924,6.95965 -0.07136,1.34298 -0.07138,-12.4815 z m -0.03631,-27.25208 c 9.62e-4,-1.16417 0.04748,-1.60751 0.10337,-0.9852 0.05589,0.62231 0.05511,1.57481 -0.0017,2.11667 -0.05685,0.54185 -0.102583,0.0327 -0.101622,-1.13147 z m -13.650597,-3.22944 c 0.327422,-0.0631 0.863203,-0.0631 1.190625,0 0.327422,0.0631 0.05953,0.11466 -0.595313,0.11466 -0.654844,0 -0.922734,-0.0516 -0.595312,-0.11466 z m 118.933843,-0.003 c 0.40219,-0.0608 0.9975,-0.0592 1.32292,0.004 0.32542,0.0628 -0.004,0.11256 -0.73124,0.11057 -0.72761,-0.002 -0.99386,-0.0534 -0.59168,-0.11418 z m -13.98554,-0.67004 -0.50403,-0.59531 0.59531,0.50403 c 0.32742,0.27721 0.59531,0.5451 0.59531,0.59531 0,0.21173 -0.21293,0.0554 -0.68659,-0.50403 z m -110.193849,-1.71979 -0.641433,-0.72761 0.727604,0.64144 c 0.680055,0.59951 0.848939,0.81377 0.641433,0.81377 -0.04739,0 -0.374816,-0.32742 -0.727604,-0.7276 z m 21.715858,0.62771 c 0,-0.0549 0.20836,-0.2633 0.463021,-0.46302 0.419644,-0.32911 0.429002,-0.31975 0.0999,0.0999 -0.345644,0.44073 -0.562916,0.58089 -0.562916,0.36313 z m 85.567571,-1.55375 -0.50403,-0.59532 0.59531,0.50403 c 0.32743,0.27722 0.59532,0.54511 0.59532,0.59532 0,0.21173 -0.21294,0.0554 -0.6866,-0.50403 z m -82.260279,-1.52136 c 0.263389,-0.29104 0.53842,-0.52916 0.611181,-0.52916 0.07276,0 -0.08321,0.23812 -0.346598,0.52916 -0.263389,0.29105 -0.53842,0.52917 -0.611181,0.52917 -0.07276,0 0.08321,-0.23812 0.346598,-0.52917 z m -9.921875,-0.66146 c 0.341774,-0.3638 0.680939,-0.66145 0.753699,-0.66145 0.07276,0 -0.147341,0.29765 -0.489116,0.66145 -0.341774,0.36381 -0.680939,0.66146 -0.753699,0.66146 -0.07276,0 0.147342,-0.29765 0.489116,-0.66146 z m 89.271734,-0.46302 -0.50403,-0.59531 0.59532,0.50403 c 0.32742,0.27722 0.59531,0.54511 0.59531,0.59531 0,0.21174 -0.21294,0.0554 -0.6866,-0.50403 z m 10.44243,-0.13229 c -0.3291,-0.41964 -0.31975,-0.429 0.0999,-0.0999 0.44073,0.34564 0.58089,0.56291 0.36312,0.56291 -0.0549,0 -0.2633,-0.20836 -0.46302,-0.46302 z m -87.014164,-1.22437 c 0,-0.0549 0.208359,-0.2633 0.463021,-0.46302 0.419644,-0.32911 0.429002,-0.31975 0.0999,0.0999 -0.345644,0.44073 -0.562916,0.58089 -0.562916,0.36313 z m -10.31875,-0.26458 c 0,-0.0549 0.208359,-0.26331 0.463021,-0.46303 0.419644,-0.3291 0.429002,-0.31974 0.0999,0.0999 -0.345644,0.44073 -0.562916,0.58089 -0.562916,0.36313 z m 94.827984,-0.76001 -0.50403,-0.59531 0.59532,0.50403 c 0.55944,0.47366 0.71576,0.6866 0.50402,0.6866 -0.0502,0 -0.31809,-0.26789 -0.59531,-0.59532 z m -11.1125,-0.52916 -0.50403,-0.59532 0.59532,0.50403 c 0.32742,0.27722 0.59531,0.54511 0.59531,0.59532 0,0.21173 -0.21294,0.0554 -0.6866,-0.50403 z m -80.805067,-1.38907 c 0.341774,-0.3638 0.680939,-0.66145 0.753699,-0.66145 0.07276,0 -0.147342,0.29765 -0.489116,0.66145 -0.341774,0.36381 -0.680939,0.66146 -0.7537,0.66146 -0.07276,0 0.147342,-0.29765 0.489117,-0.66146 z m 10.583333,0.0324 c 0,-0.0549 0.208359,-0.2633 0.463021,-0.46302 0.419644,-0.32911 0.429002,-0.31975 0.0999,0.0999 -0.345644,0.44072 -0.562916,0.58088 -0.562916,0.36312 z m 77.787504,-1.35531 c -0.64268,-0.65485 -1.10898,-1.19063 -1.03622,-1.19063 0.0728,0 0.65812,0.53578 1.3008,1.19063 0.64268,0.65484 1.10898,1.19062 1.03622,1.19062 -0.0728,0 -0.65812,-0.53578 -1.3008,-1.19062 z m -10.33878,0.19844 -0.64143,-0.72761 0.7276,0.64143 c 0.40018,0.35279 0.72761,0.68021 0.72761,0.72761 0,0.2075 -0.21426,0.0386 -0.81378,-0.64143 z m -64.141432,-1.91823 c 0.263389,-0.29105 0.53842,-0.52917 0.61118,-0.52917 0.07276,0 -0.08321,0.23812 -0.346597,0.52917 -0.263389,0.29104 -0.538421,0.52916 -0.611181,0.52916 -0.07276,0 0.08321,-0.23812 0.346598,-0.52916 z m 60.701852,-1.25677 -0.64144,-0.72761 0.72761,0.64143 c 0.68005,0.59952 0.84894,0.81378 0.64143,0.81378 -0.0474,0 -0.37481,-0.32742 -0.7276,-0.7276 z m -68.771644,-0.95979 c 0,-0.0549 0.208359,-0.26331 0.463021,-0.46303 0.419644,-0.3291 0.429002,-0.31974 0.09989,0.0999 -0.345644,0.44073 -0.562916,0.58089 -0.562916,0.36313 z m 11.244792,-0.69386 c 0.263389,-0.29104 0.53842,-0.52917 0.61118,-0.52917 0.07276,0 -0.08321,0.23813 -0.346597,0.52917 -0.263389,0.29104 -0.538421,0.52917 -0.611181,0.52917 -0.07276,0 0.08321,-0.23813 0.346598,-0.52917 z m 66.120692,-0.0661 -0.50403,-0.59531 0.59532,0.50403 c 0.32742,0.27722 0.59531,0.54511 0.59531,0.59531 0,0.21174 -0.21294,0.0554 -0.6866,-0.50403 z m -101.177984,-0.0337 c 0,-0.0549 0.208359,-0.26331 0.463021,-0.46303 0.419644,-0.3291 0.429002,-0.31974 0.0999,0.0999 -0.345644,0.44073 -0.562916,0.58089 -0.562916,0.36313 z m 124.863304,-0.8923 -0.64143,-0.7276 0.72761,0.64143 c 0.40018,0.35279 0.7276,0.68021 0.7276,0.72761 0,0.2075 -0.21426,0.0386 -0.81378,-0.64144 z m -35.32698,-0.13229 -0.50403,-0.59531 0.59531,0.50403 c 0.55945,0.47366 0.71576,0.68659 0.50403,0.68659 -0.0502,0 -0.3181,-0.26789 -0.59531,-0.59531 z m -87.155074,-1.09208 c 0,-0.0549 0.208359,-0.2633 0.463021,-0.46302 0.419644,-0.32911 0.429002,-0.31975 0.09989,0.0999 -0.345644,0.44073 -0.562916,0.58089 -0.562916,0.36313 z m 35.454167,-0.26458 c 0,-0.055 0.208359,-0.26331 0.46302,-0.46303 0.419644,-0.3291 0.429003,-0.31974 0.0999,0.0999 -0.345643,0.44073 -0.562915,0.58089 -0.562915,0.36313 z m -9.392709,-1.22303 c 0.263389,-0.29104 0.538421,-0.52916 0.611181,-0.52916 0.07276,0 -0.08321,0.23812 -0.346597,0.52916 -0.26339,0.29104 -0.538421,0.52917 -0.611181,0.52917 -0.07276,0 0.08321,-0.23813 0.346597,-0.52917 z m 93.496456,0.0661 c -0.3291,-0.41964 -0.31975,-0.429 0.0999,-0.0999 0.44073,0.34565 0.58089,0.56292 0.36312,0.56292 -0.0549,0 -0.2633,-0.20836 -0.46302,-0.46302 z M 128.3377,133.4849 c -0.32911,-0.41965 -0.31975,-0.42901 0.0999,-0.0999 0.44073,0.34564 0.58089,0.56292 0.36313,0.56292 -0.0549,0 -0.2633,-0.20836 -0.46302,-0.46302 z m 10.19507,-0.39688 -0.50403,-0.59531 0.59531,0.50403 c 0.32742,0.27721 0.59531,0.5451 0.59531,0.59531 0,0.21173 -0.21293,0.0554 -0.68659,-0.50403 z m -55.537366,-1.25677 c 0.263389,-0.29104 0.538421,-0.52917 0.611181,-0.52917 0.07276,0 -0.08321,0.23813 -0.346597,0.52917 -0.26339,0.29104 -0.538421,0.52917 -0.611181,0.52917 -0.07276,0 0.08321,-0.23813 0.346597,-0.52917 z m 78.415206,-0.19844 c -0.3291,-0.41964 -0.31975,-0.429 0.0999,-0.0999 0.44073,0.34564 0.58089,0.56291 0.36312,0.56291 -0.0549,0 -0.2633,-0.20836 -0.46302,-0.46302 z M 48.599571,131.0375 c 0.263389,-0.29104 0.53842,-0.52917 0.611181,-0.52917 0.07276,0 -0.08321,0.23813 -0.346598,0.52917 -0.263389,0.29104 -0.53842,0.52917 -0.611181,0.52917 -0.07276,0 0.08321,-0.23813 0.346598,-0.52917 z m 76.841429,-0.19844 -0.64143,-0.7276 0.72761,0.64143 c 0.40018,0.35279 0.7276,0.68021 0.7276,0.72761 0,0.2075 -0.21426,0.0386 -0.81378,-0.64144 z m 10.71052,0.13229 -0.50403,-0.59531 0.59531,0.50403 c 0.55945,0.47366 0.71576,0.6866 0.50403,0.6866 -0.0502,0 -0.3181,-0.26789 -0.59531,-0.59532 z m 22.48958,-1.85208 -0.50403,-0.59531 0.59531,0.50403 c 0.32743,0.27721 0.59532,0.5451 0.59532,0.59531 0,0.21173 -0.21294,0.0554 -0.6866,-0.50403 z m -72.867571,0.23084 c 0,-0.0549 0.20836,-0.26331 0.463021,-0.46303 0.419644,-0.3291 0.429002,-0.31974 0.0999,0.0999 -0.345644,0.44073 -0.562916,0.58089 -0.562916,0.36313 z m -34.528125,-0.69386 c 0.263389,-0.29104 0.538421,-0.52917 0.611181,-0.52917 0.07276,0 -0.08321,0.23813 -0.346597,0.52917 -0.26339,0.29104 -0.538421,0.52917 -0.611181,0.52917 -0.07276,0 0.08321,-0.23813 0.346597,-0.52917 z m 24.473959,0.16469 c 0,-0.0549 0.208359,-0.2633 0.46302,-0.46302 0.419644,-0.32911 0.429003,-0.31975 0.0999,0.0999 -0.345643,0.44073 -0.562915,0.58089 -0.562915,0.36313 z m 46.673817,-0.76 -0.50403,-0.59531 0.59532,0.50402 c 0.32742,0.27722 0.59531,0.54511 0.59531,0.59532 0,0.21173 -0.21294,0.0554 -0.6866,-0.50403 z m 10.58334,0 -0.50403,-0.59531 0.59531,0.50402 c 0.32742,0.27722 0.59531,0.54511 0.59531,0.59532 0,0.21173 -0.21293,0.0554 -0.68659,-0.50403 z m -79.614449,-1.25677 c 0.263389,-0.29105 0.53842,-0.52917 0.611181,-0.52917 0.07276,0 -0.08321,0.23812 -0.346598,0.52917 -0.263389,0.29104 -0.53842,0.52916 -0.611181,0.52916 -0.07276,0 0.08321,-0.23812 0.346598,-0.52916 z m 24.738542,-0.0828 c 0,-0.0455 0.386953,-0.43249 0.859895,-0.8599 l 0.859896,-0.77711 -0.777105,0.8599 c -0.724371,0.80154 -0.942686,0.98151 -0.942686,0.77711 z m 77.238307,-0.64482 -0.64143,-0.7276 0.7276,0.64143 c 0.40018,0.35279 0.72761,0.68021 0.72761,0.72761 0,0.2075 -0.21426,0.0386 -0.81378,-0.64144 z m -66.390391,0.36313 c 0,-0.0549 0.20836,-0.2633 0.463021,-0.46302 0.419644,-0.32911 0.429002,-0.31975 0.09989,0.0999 -0.345644,0.44073 -0.562916,0.58089 -0.562916,0.36313 z m 30.407061,-1.15688 -0.64144,-0.7276 0.72761,0.64143 c 0.68005,0.59952 0.84894,0.81378 0.64143,0.81378 -0.0474,0 -0.37481,-0.32743 -0.7276,-0.72761 z m 10.05995,-0.52916 -0.9118,-0.99219 0.99219,0.9118 c 0.5457,0.50149 0.99218,0.94797 0.99218,0.99218 0,0.20205 -0.22389,0.0117 -1.07257,-0.91179 z m -72.481594,-1.25677 c 0.341774,-0.36381 0.680939,-0.66146 0.753699,-0.66146 0.07276,0 -0.147341,0.29765 -0.489116,0.66146 -0.341774,0.3638 -0.680939,0.66145 -0.753699,0.66145 -0.07276,0 0.147342,-0.29765 0.489116,-0.66145 z m 35.454167,-0.26459 c 0.341774,-0.3638 0.680939,-0.66146 0.753699,-0.66146 0.07276,0 -0.147342,0.29766 -0.489116,0.66146 -0.341774,0.3638 -0.680939,0.66146 -0.7537,0.66146 -0.07276,0 0.147342,-0.29766 0.489117,-0.66146 z m 59.382317,-0.46302 -0.77711,-0.8599 0.8599,0.77711 c 0.47294,0.42741 0.85989,0.81436 0.85989,0.8599 0,0.2044 -0.21831,0.0244 -0.94268,-0.77711 z m -69.701067,0.23084 c 0,-0.055 0.208359,-0.26331 0.46302,-0.46303 0.419644,-0.3291 0.429003,-0.31974 0.0999,0.0999 -0.345643,0.44073 -0.562915,0.58089 -0.562915,0.36313 z m 34.111227,-0.62771 -0.64144,-0.72761 0.72761,0.64143 c 0.68005,0.59952 0.84894,0.81378 0.64143,0.81378 -0.0474,0 -0.37481,-0.32742 -0.7276,-0.7276 z m -31.729977,-1.47186 c 0,-0.0455 0.386953,-0.43248 0.859895,-0.85989 l 0.859896,-0.77711 -0.777105,0.8599 c -0.724371,0.80154 -0.942686,0.98151 -0.942686,0.7771 z m 10.980208,-0.44637 c 0.263389,-0.29105 0.53842,-0.52917 0.611181,-0.52917 0.07276,0 -0.08321,0.23812 -0.346598,0.52917 -0.263389,0.29104 -0.53842,0.52916 -0.611181,0.52916 -0.07276,0 0.08321,-0.23812 0.346598,-0.52916 z m 28.558359,-0.59532 -0.77711,-0.85989 0.8599,0.7771 c 0.47294,0.42741 0.85989,0.81436 0.85989,0.8599 0,0.20441 -0.21831,0.0244 -0.94268,-0.77711 z m 24.72143,0.1323 c -0.3291,-0.41965 -0.31975,-0.42901 0.0999,-0.0999 0.44073,0.34564 0.58089,0.56292 0.36312,0.56292 -0.0549,0 -0.2633,-0.20836 -0.46302,-0.46302 z m -35.70502,-0.52917 -0.64144,-0.7276 0.72761,0.64143 c 0.68005,0.59951 0.84894,0.81377 0.64143,0.81377 -0.0474,0 -0.37481,-0.32742 -0.7276,-0.7276 z M 62.083902,105.24062 c -4.7e-5,-7.421558 0.03385,-10.495739 0.07532,-6.831509 0.04147,3.664229 0.04151,9.736419 8.4e-5,13.493749 -0.04142,3.75733 -0.07536,0.75933 -0.0754,-6.66224 z m 36.125044,12.7324 c 0,-0.0549 0.208359,-0.2633 0.463021,-0.46302 0.419644,-0.32911 0.429002,-0.31975 0.0999,0.0999 -0.345644,0.44072 -0.562916,0.58088 -0.562916,0.36312 z m 47.476064,-0.76 -0.77711,-0.85989 0.8599,0.7771 c 0.47294,0.42741 0.8599,0.81436 0.8599,0.8599 0,0.2044 -0.21832,0.0244 -0.94269,-0.77711 z m -35.60356,-0.39687 c -0.32911,-0.41965 -0.31975,-0.42901 0.0999,-0.0999 0.25466,0.19972 0.46302,0.40808 0.46302,0.46302 0,0.21776 -0.21727,0.0776 -0.56291,-0.36312 z m -21.397504,0.0985 c 0,-0.0549 0.208359,-0.2633 0.463021,-0.46302 0.419644,-0.32911 0.429002,-0.31975 0.09989,0.0999 -0.345644,0.44073 -0.562916,0.58089 -0.562916,0.36313 z m 31.327984,-0.76 -0.50403,-0.59531 0.59532,0.50402 c 0.32742,0.27722 0.59531,0.54511 0.59531,0.59532 0,0.21173 -0.21294,0.0554 -0.6866,-0.50403 z m -18.3634,-1.38906 c 0.34177,-0.36381 0.68094,-0.66146 0.7537,-0.66146 0.0728,0 -0.14734,0.29765 -0.48912,0.66146 -0.34177,0.3638 -0.68094,0.66145 -0.7537,0.66145 -0.0728,0 0.14734,-0.29765 0.48912,-0.66145 z m 5.39882,-0.72761 -0.50403,-0.59531 0.59531,0.50403 c 0.55945,0.47366 0.71577,0.68659 0.50403,0.68659 -0.0502,0 -0.3181,-0.26789 -0.59531,-0.59531 z m 10.70701,0.13229 c -0.3291,-0.41964 -0.31975,-0.429 0.0999,-0.0999 0.44073,0.34564 0.58089,0.56291 0.36312,0.56291 -0.0549,0 -0.2633,-0.20836 -0.46302,-0.46302 z m 24.60625,0 c -0.3291,-0.41964 -0.31975,-0.429 0.0999,-0.0999 0.44073,0.34564 0.58089,0.56291 0.36312,0.56291 -0.0549,0 -0.2633,-0.20836 -0.46302,-0.46302 z m -48.384997,-2.05052 c 0.493655,-0.50932 0.957086,-0.92604 1.029846,-0.92604 0.07276,0 -0.271608,0.41672 -0.765263,0.92604 -0.493655,0.50932 -0.957086,0.92604 -1.029847,0.92604 -0.07276,0 0.271608,-0.41672 0.765264,-0.92604 z m 10.512777,0.0995 c 0.17948,-0.18082 0.39297,-0.26211 0.47443,-0.18065 0.0815,0.0815 -0.0654,0.2294 -0.32632,0.32876 -0.37708,0.14359 -0.40747,0.1132 -0.14811,-0.14811 z m 9.97579,-1.09165 -0.77711,-0.85989 0.8599,0.7771 c 0.80154,0.72437 0.98151,0.94269 0.7771,0.94269 -0.0455,0 -0.43249,-0.38695 -0.85989,-0.8599 z m 24.86234,0.26459 -0.50403,-0.59531 0.59531,0.50402 c 0.32742,0.27722 0.59531,0.54511 0.59531,0.59532 0,0.21173 -0.21293,0.0554 -0.68659,-0.50403 z m -2.90193,-2.64584 -0.7771,-0.85989 0.85989,0.7771 c 0.80155,0.72437 0.98152,0.94269 0.77711,0.94269 -0.0455,0 -0.43249,-0.38695 -0.8599,-0.8599 z m -38.877102,0.0661 c 0.263389,-0.29104 0.53842,-0.52917 0.61118,-0.52917 0.07276,0 -0.08321,0.23813 -0.346597,0.52917 -0.263389,0.29104 -0.538421,0.52917 -0.611181,0.52917 -0.07276,0 0.08321,-0.23813 0.346598,-0.52917 z m 13.606012,-0.7276 -0.64143,-0.72761 0.72761,0.64143 c 0.68005,0.59952 0.84893,0.81378 0.64143,0.81378 -0.0474,0 -0.37482,-0.32742 -0.72761,-0.7276 z m -11.357054,-1.22438 c 0,-0.0549 0.208364,-0.2633 0.463024,-0.46302 0.41964,-0.32911 0.429,-0.31975 0.0999,0.0999 -0.34564,0.44072 -0.562914,0.58088 -0.562914,0.36312 z m 33.709234,-0.76 -0.50403,-0.59531 0.59532,0.50403 c 0.55944,0.47366 0.71576,0.68659 0.50402,0.68659 -0.0502,0 -0.31809,-0.26789 -0.59531,-0.59531 z m -25.27632,-0.66146 c -0.3291,-0.41964 -0.31975,-0.429 0.0999,-0.0999 0.44073,0.34564 0.58089,0.56291 0.36312,0.56291 -0.0549,0 -0.2633,-0.20836 -0.46302,-0.46302 z M 76.103221,96.377083 c 0,-5.165989 0.03544,-7.279349 0.07876,-4.696354 0.04332,2.582995 0.04332,6.809714 0,9.392711 -0.04332,2.58299 -0.07876,0.46963 -0.07876,-4.696357 z m 1.732808,8.102187 c 0,-0.0549 0.20836,-0.2633 0.463021,-0.46302 0.419644,-0.32911 0.429002,-0.31975 0.0999,0.0999 -0.345644,0.44072 -0.562916,0.58088 -0.562916,0.36312 z m 52.353751,-1.42146 c -0.32911,-0.41964 -0.31975,-0.429 0.0999,-0.0999 0.44072,0.34564 0.58088,0.56291 0.36312,0.56291 -0.0549,0 -0.2633,-0.20836 -0.46302,-0.46302 z m -26.42458,0.0986 c 0,-0.055 0.20836,-0.26331 0.46302,-0.46303 0.41964,-0.3291 0.429,-0.31974 0.0999,0.0999 -0.34564,0.44073 -0.56291,0.58089 -0.56291,0.36313 z M 81.672488,100.875 c 0.263389,-0.29104 0.53842,-0.52917 0.61118,-0.52917 0.07276,0 -0.08321,0.23813 -0.346597,0.52917 -0.263389,0.29104 -0.538421,0.52917 -0.611181,0.52917 -0.07276,0 0.08321,-0.23813 0.346598,-0.52917 z m 2.778125,-2.513542 C 84.792387,97.997656 85.131552,97.7 85.204312,97.7 c 0.07276,0 -0.147342,0.297656 -0.489116,0.661458 -0.341774,0.363802 -0.680939,0.661459 -0.7537,0.661459 -0.07276,0 0.147342,-0.297657 0.489117,-0.661459 z m 39.389167,-1.124479 c -0.32911,-0.419644 -0.31975,-0.429002 0.0999,-0.0999 0.25466,0.19972 0.46302,0.408079 0.46302,0.463021 0,0.217761 -0.21728,0.0776 -0.56292,-0.363126 z M 87.890196,95.186458 c 0.493655,-0.509323 0.957086,-0.926041 1.029846,-0.926041 0.07276,0 -0.271608,0.416718 -0.765263,0.926041 -0.493655,0.509323 -0.957086,0.926042 -1.029846,0.926042 -0.07276,0 0.271608,-0.416719 0.765263,-0.926042 z m 33.453144,-0.198437 -0.7771,-0.859896 0.85989,0.777105 c 0.80155,0.724372 0.98152,0.942687 0.77711,0.942687 -0.0455,0 -0.43249,-0.386953 -0.8599,-0.859896 z M 90.536029,92.837605 c 0,-0.05494 0.20836,-0.263301 0.463021,-0.463021 0.419644,-0.329107 0.429002,-0.319749 0.0999,0.0999 -0.345644,0.440729 -0.562916,0.580887 -0.562916,0.363126 z m 27.232061,-1.156876 -0.64144,-0.727604 0.72761,0.641433 c 0.68005,0.599516 0.84894,0.813775 0.64143,0.813775 -0.0474,0 -0.37481,-0.327422 -0.7276,-0.727604 z m -3.04782,-2.778125 -0.50403,-0.595312 0.59531,0.504028 c 0.32742,0.277215 0.59531,0.545106 0.59531,0.595312 0,0.211734 -0.21293,0.05542 -0.68659,-0.504028 z M 97.812071,86.058333 c 0.263389,-0.291041 0.53842,-0.529166 0.611181,-0.529166 0.07276,0 -0.08321,0.238125 -0.346598,0.529166 -0.263389,0.291042 -0.53842,0.529167 -0.611181,0.529167 -0.07276,0 0.08321,-0.238125 0.346598,-0.529167 z m 7.491019,-3.620324 c 0.19099,-0.07643 0.4192,-0.06703 0.50711,0.02089 0.0879,0.08792 -0.0683,0.150452 -0.34726,0.138964 -0.30823,-0.0127 -0.37092,-0.07539 -0.15985,-0.159854 z"
         id="path3" /><path
         style="fill:#000000;fill-opacity:1"
         d="m 65.59905,214.19452 c 0.327422,-0.0631 0.863203,-0.0631 1.190625,0 0.327422,0.0631 0.05953,0.11467 -0.595312,0.11467 -0.654844,0 -0.922735,-0.0516 -0.595313,-0.11467 z m 77.25833,0 c 0.32743,-0.0631 0.86321,-0.0631 1.19063,0 0.32742,0.0631 0.0595,0.11467 -0.59531,0.11467 -0.65485,0 -0.92274,-0.0516 -0.59532,-0.11467 z m 8.33313,-32.20389 c -0.0602,-25.51188 -0.0976,-27.53552 -0.5181,-28.04584 l -0.4532,-0.55 0.58673,0.53776 0.58673,0.53775 -0.0686,27.50808 -0.0686,27.50808 z m -52.915418,2.0299 c 3.601638,-0.0416 9.495238,-0.0416 13.096878,0 3.60164,0.0416 0.65484,0.0756 -6.54844,0.0756 -7.203282,0 -10.150079,-0.034 -6.548438,-0.0756 z m -38.166146,-31.1549 c 0.493655,-0.50933 0.957086,-0.92605 1.029846,-0.92605 0.07276,0 -0.271608,0.41672 -0.765263,0.92605 -0.493655,0.50932 -0.957086,0.92604 -1.029846,0.92604 -0.07276,0 0.271608,-0.41672 0.765263,-0.92604 z m 87.957314,-1.25678 -0.77711,-0.85989 0.8599,0.7771 c 0.47294,0.42741 0.8599,0.81436 0.8599,0.8599 0,0.20441 -0.21832,0.0244 -0.94269,-0.77711 z m 21.58019,-0.0337 c 0,-0.0549 0.20836,-0.26331 0.46302,-0.46303 0.41964,-0.3291 0.429,-0.31974 0.0999,0.0999 -0.34564,0.44073 -0.56291,0.58089 -0.56291,0.36313 z M 51.906863,150.48437 c 0.341774,-0.3638 0.680939,-0.66145 0.753699,-0.66145 0.07276,0 -0.147342,0.29765 -0.489116,0.66145 -0.341774,0.36381 -0.680939,0.66146 -0.7537,0.66146 -0.07276,0 0.147342,-0.29765 0.489117,-0.66146 z m 104.774997,-0.79375 c -0.64268,-0.65484 -1.10898,-1.19062 -1.03622,-1.19062 0.0728,0 0.65813,0.53578 1.30081,1.19062 0.64268,0.65485 1.10897,1.19063 1.03621,1.19063 -0.0728,0 -0.65812,-0.53578 -1.3008,-1.19063 z m -93.397914,0.26459 c 0.341774,-0.3638 0.680939,-0.66146 0.753699,-0.66146 0.07276,0 -0.147341,0.29766 -0.489116,0.66146 -0.341774,0.3638 -0.680939,0.66146 -0.753699,0.66146 -0.07276,0 0.147342,-0.29766 0.489116,-0.66146 z m 81.736224,-1.12448 -0.64143,-0.72761 0.7276,0.64144 c 0.40018,0.35279 0.72761,0.68021 0.72761,0.7276 0,0.20751 -0.21426,0.0386 -0.81378,-0.64143 z m -78.561224,-1.78594 c 0.341774,-0.3638 0.680939,-0.66146 0.753699,-0.66146 0.07276,0 -0.147341,0.29766 -0.489116,0.66146 -0.341774,0.3638 -0.680939,0.66146 -0.753699,0.66146 -0.07276,0 0.147342,-0.29766 0.489116,-0.66146 z m -10.583333,-0.26458 c 0.341774,-0.3638 0.680939,-0.66146 0.753699,-0.66146 0.07276,0 -0.147342,0.29766 -0.489116,0.66146 -0.341774,0.3638 -0.680939,0.66146 -0.7537,0.66146 -0.07276,0 0.147342,-0.29766 0.489117,-0.66146 z m 97.346637,-0.33073 -0.64143,-0.72761 0.72761,0.64144 c 0.40018,0.35279 0.7276,0.68021 0.7276,0.7276 0,0.20751 -0.21426,0.0386 -0.81378,-0.64143 z m -11.37708,-0.52917 -0.64143,-0.7276 0.7276,0.64143 c 0.40018,0.35279 0.72761,0.68021 0.72761,0.72761 0,0.2075 -0.21426,0.0386 -0.81378,-0.64144 z m -83.720599,-1.12448 c 0.263389,-0.29104 0.53842,-0.52916 0.611181,-0.52916 0.07276,0 -0.08321,0.23812 -0.346598,0.52916 -0.263389,0.29105 -0.53842,0.52917 -0.611181,0.52917 -0.07276,0 0.08321,-0.23812 0.346598,-0.52917 z m 10.715625,0.1818 c 0,-0.0455 0.386953,-0.43249 0.859896,-0.8599 l 0.859896,-0.77711 -0.777106,0.8599 c -0.724371,0.80154 -0.942686,0.98151 -0.942686,0.77711 z m 81.863404,-0.77711 -0.50403,-0.59531 0.59531,0.50403 c 0.32743,0.27721 0.59532,0.5451 0.59532,0.59531 0,0.21173 -0.21294,0.0554 -0.6866,-0.50403 z m -11.64167,-0.79375 -0.50403,-0.59531 0.59532,0.50403 c 0.55944,0.47366 0.71576,0.68659 0.50402,0.68659 -0.0502,0 -0.31809,-0.26789 -0.59531,-0.59531 z m -77.233192,-2.05052 c 0.716663,-0.7276 1.362555,-1.32292 1.435316,-1.32292 0.07276,0 -0.45407,0.59532 -1.170733,1.32292 -0.716663,0.7276 -1.362556,1.32292 -1.435316,1.32292 -0.07276,0 0.454069,-0.59532 1.170733,-1.32292 z m 10.715625,0.13229 c 0.341774,-0.3638 0.680939,-0.66146 0.753699,-0.66146 0.07276,0 -0.147342,0.29766 -0.489116,0.66146 -0.341774,0.3638 -0.680939,0.66146 -0.7537,0.66146 -0.07276,0 0.147342,-0.29766 0.489117,-0.66146 z m 63.215387,-1.12448 -0.64143,-0.7276 0.72761,0.64143 c 0.68005,0.59952 0.84893,0.81378 0.64143,0.81378 -0.0474,0 -0.37482,-0.32743 -0.72761,-0.72761 z m 10.71052,-0.13229 -0.50403,-0.59531 0.59531,0.50403 c 0.32742,0.27721 0.59531,0.5451 0.59531,0.59531 0,0.21173 -0.21293,0.0554 -0.68659,-0.50403 z m 22.63937,-1.45521 -1.71215,-1.78594 1.78594,1.71215 c 0.98226,0.94168 1.78593,1.74536 1.78593,1.78594 0,0.19474 -0.26941,-0.0533 -1.85972,-1.71215 z m -129.373611,0.59531 c 0.493655,-0.50932 0.957086,-0.92604 1.029847,-0.92604 0.07276,0 -0.271608,0.41672 -0.765263,0.92604 -0.493656,0.50933 -0.957087,0.92605 -1.029847,0.92605 -0.07276,0 0.271608,-0.41672 0.765263,-0.92605 z m 25.003125,-0.66145 c 0.263389,-0.29105 0.538421,-0.52917 0.611181,-0.52917 0.07276,0 -0.08321,0.23812 -0.346597,0.52917 -0.26339,0.29104 -0.538421,0.52916 -0.611181,0.52916 -0.07276,0 0.08321,-0.23812 0.346597,-0.52916 z m 10.980209,-0.1323 c 0.341774,-0.3638 0.680939,-0.66145 0.753699,-0.66145 0.07276,0 -0.147342,0.29765 -0.489116,0.66145 -0.341774,0.36381 -0.680939,0.66146 -0.7537,0.66146 -0.07276,0 0.147342,-0.29765 0.489117,-0.66146 z m 68.634237,-0.19843 -0.50403,-0.59532 0.59531,0.50403 c 0.32743,0.27722 0.59532,0.54511 0.59532,0.59532 0,0.21173 -0.21294,0.0554 -0.6866,-0.50403 z m -11.76885,-0.92604 -0.64143,-0.72761 0.72761,0.64143 c 0.68005,0.59952 0.84893,0.81378 0.64143,0.81378 -0.0474,0 -0.37482,-0.32742 -0.72761,-0.7276 z m -65.596637,-0.72761 c 0.341774,-0.3638 0.680939,-0.66146 0.753699,-0.66146 0.07276,0 -0.147342,0.29766 -0.489116,0.66146 -0.341774,0.3638 -0.680939,0.66146 -0.7537,0.66146 -0.07276,0 0.147342,-0.29766 0.489117,-0.66146 z m 74.074297,-1.38906 -1.44617,-1.52136 1.52135,1.44618 c 1.41339,1.34353 1.64256,1.59653 1.44617,1.59653 -0.0414,0 -0.72596,-0.68461 -1.52135,-1.52135 z m -62.961797,1.17398 c 0,-0.0455 0.386953,-0.43249 0.859895,-0.8599 l 0.859896,-0.7771 -0.777105,0.85989 c -0.724371,0.80155 -0.942686,0.98152 -0.942686,0.77711 z m -34.660417,-0.54627 c 0,-0.0549 0.208359,-0.2633 0.463021,-0.46302 0.419644,-0.32911 0.429002,-0.31975 0.0999,0.0999 -0.345644,0.44073 -0.562916,0.58089 -0.562916,0.36313 z m 86.239924,-1.15688 -0.9118,-0.99219 0.99219,0.9118 c 0.5457,0.50149 0.99219,0.94798 0.99219,0.99219 0,0.20204 -0.2239,0.0117 -1.07258,-0.9118 z m 35.1838,0 -0.64143,-0.7276 0.7276,0.64143 c 0.40018,0.35279 0.72761,0.68021 0.72761,0.72761 0,0.2075 -0.21426,0.0386 -0.81378,-0.64144 z M 46.747488,132.88958 c 0.716663,-0.7276 1.362555,-1.32291 1.435316,-1.32291 0.07276,0 -0.45407,0.59531 -1.170733,1.32291 -0.716663,0.72761 -1.362556,1.32292 -1.435316,1.32292 -0.07276,0 0.454069,-0.59531 1.170733,-1.32292 z m 35.057291,0.13229 c 0.341775,-0.3638 0.680939,-0.66145 0.7537,-0.66145 0.07276,0 -0.147342,0.29765 -0.489116,0.66145 -0.341775,0.36381 -0.68094,0.66146 -0.7537,0.66146 -0.07276,0 0.147342,-0.29765 0.489116,-0.66146 z M 71.353738,132.625 c 0.263389,-0.29104 0.53842,-0.52917 0.61118,-0.52917 0.07276,0 -0.08321,0.23813 -0.346597,0.52917 -0.263389,0.29104 -0.538421,0.52917 -0.611181,0.52917 -0.07276,0 0.08321,-0.23813 0.346598,-0.52917 z m 90.991532,-0.0661 -0.50403,-0.59531 0.59531,0.50403 c 0.32742,0.27722 0.59531,0.54511 0.59531,0.59531 0,0.21174 -0.21293,0.0554 -0.68659,-0.50403 z m -35.58135,-0.39687 -0.64143,-0.72761 0.7276,0.64144 c 0.68006,0.59951 0.84894,0.81377 0.64143,0.81377 -0.0474,0 -0.37481,-0.32742 -0.7276,-0.7276 z m 10.83419,0 c -0.3291,-0.41964 -0.31975,-0.429 0.0999,-0.0999 0.25466,0.19972 0.46302,0.40808 0.46302,0.46303 0,0.21776 -0.21727,0.0776 -0.56292,-0.36313 z M 73.999571,130.2438 c 0.716663,-0.7276 1.362555,-1.32292 1.435316,-1.32292 0.07276,0 -0.454069,0.59532 -1.170733,1.32292 -0.716663,0.7276 -1.362555,1.32292 -1.435316,1.32292 -0.07276,0 0.45407,-0.59532 1.170733,-1.32292 z m 85.837269,0.0661 -0.64144,-0.72761 0.72761,0.64143 c 0.40018,0.35279 0.7276,0.68021 0.7276,0.72761 0,0.2075 -0.21426,0.0386 -0.81377,-0.64143 z m -74.857061,-0.19844 c 0.341775,-0.3638 0.680939,-0.66146 0.7537,-0.66146 0.07276,0 -0.147342,0.29766 -0.489116,0.66146 -0.341775,0.3638 -0.68094,0.66146 -0.7537,0.66146 -0.07276,0 0.147342,-0.29766 0.489116,-0.66146 z m 49.727421,-0.59531 -0.9118,-0.99219 0.99219,0.9118 c 0.5457,0.50149 0.99219,0.94797 0.99219,0.99218 0,0.20205 -0.2239,0.0117 -1.07258,-0.91179 z m -84.520129,0.19843 c 0.263389,-0.29104 0.53842,-0.52916 0.611181,-0.52916 0.07276,0 -0.08321,0.23812 -0.346598,0.52916 -0.263389,0.29104 -0.53842,0.52917 -0.611181,0.52917 -0.07276,0 0.08321,-0.23813 0.346598,-0.52917 z m 73.264449,-0.59531 -0.50403,-0.59531 0.59531,0.50403 c 0.32742,0.27721 0.59531,0.5451 0.59531,0.59531 0,0.21173 -0.21293,0.0554 -0.68659,-0.50403 z m -71.280074,-1.09208 c 0,-0.0549 0.208359,-0.2633 0.463021,-0.46302 0.419644,-0.32911 0.429002,-0.31975 0.09989,0.0999 -0.345644,0.44073 -0.562916,0.58089 -0.562916,0.36313 z m 24.341667,0 c 0,-0.0549 0.208359,-0.2633 0.46302,-0.46302 0.419644,-0.32911 0.429003,-0.31975 0.09989,0.0999 -0.345643,0.44073 -0.562915,0.58089 -0.562915,0.36313 z m 10.847916,0.0171 c 0,-0.0455 0.386953,-0.43248 0.859896,-0.85989 l 0.859896,-0.77711 -0.777105,0.8599 c -0.724372,0.80154 -0.942687,0.98151 -0.942687,0.7771 z m 69.300811,-0.64481 -0.64144,-0.7276 0.72761,0.64143 c 0.40018,0.35279 0.7276,0.68021 0.7276,0.7276 0,0.20751 -0.21426,0.0386 -0.81377,-0.64143 z m -24.74366,-0.39688 -0.50403,-0.59531 0.59532,0.50403 c 0.55944,0.47366 0.71576,0.6866 0.50402,0.6866 -0.0502,0 -0.31809,-0.26789 -0.59531,-0.59532 z m -11.23968,-0.39687 -0.64143,-0.72761 0.72761,0.64144 c 0.68005,0.59951 0.84893,0.81377 0.64143,0.81377 -0.0474,0 -0.37482,-0.32742 -0.72761,-0.7276 z m -65.464346,-1.38906 c 0.568389,-0.58209 1.092966,-1.05834 1.165727,-1.05834 0.07276,0 -0.332754,0.47625 -0.901143,1.05834 -0.56839,0.58208 -1.092967,1.05833 -1.165727,1.05833 -0.07276,0 0.332754,-0.47625 0.901143,-1.05833 z m 25.267709,-0.92604 c 0.493655,-0.50933 0.957086,-0.92605 1.029846,-0.92605 0.07276,0 -0.271608,0.41672 -0.765263,0.92605 -0.493655,0.50932 -0.957086,0.92604 -1.029847,0.92604 -0.07276,0 0.271608,-0.41672 0.765264,-0.92604 z m 10.583333,0.26458 c 0.341774,-0.3638 0.680939,-0.66146 0.753699,-0.66146 0.07276,0 -0.147341,0.29766 -0.489116,0.66146 -0.341774,0.3638 -0.680939,0.66146 -0.753699,0.66146 -0.07276,0 0.147342,-0.29766 0.489116,-0.66146 z m 62.292734,-0.19844 -0.77711,-0.85989 0.8599,0.7771 c 0.47294,0.42741 0.85989,0.81436 0.85989,0.8599 0,0.2044 -0.21831,0.0244 -0.94268,-0.77711 z m -35.85443,-0.66146 -0.64143,-0.7276 0.72761,0.64143 c 0.68005,0.59952 0.84893,0.81378 0.64143,0.81378 -0.0474,0 -0.37482,-0.32743 -0.72761,-0.72761 z m 10.31875,-0.52916 -0.64143,-0.72761 0.72761,0.64143 c 0.68005,0.59952 0.84893,0.81378 0.64143,0.81378 -0.0474,0 -0.37482,-0.32742 -0.72761,-0.7276 z m -69.300804,-0.99219 c 0.341774,-0.3638 0.680939,-0.66146 0.753699,-0.66146 0.07276,0 -0.147341,0.29766 -0.489116,0.66146 -0.341774,0.3638 -0.680939,0.66146 -0.753699,0.66146 -0.07276,0 0.147342,-0.29766 0.489116,-0.66146 z m 24.870833,-0.52917 c 0.341775,-0.3638 0.680939,-0.66146 0.7537,-0.66146 0.07276,0 -0.147342,0.29766 -0.489116,0.66146 -0.341775,0.3638 -0.68094,0.66146 -0.7537,0.66146 -0.07276,0 0.147342,-0.29766 0.489116,-0.66146 z m 10.847917,0 c 0.341774,-0.3638 0.680939,-0.66146 0.753699,-0.66146 0.07276,0 -0.147341,0.29766 -0.489116,0.66146 -0.341774,0.3638 -0.680939,0.66146 -0.753699,0.66146 -0.07276,0 0.147342,-0.29766 0.489116,-0.66146 z m 55.678144,-0.46302 -0.7771,-0.85989 0.85989,0.7771 c 0.47295,0.42741 0.8599,0.81436 0.8599,0.8599 0,0.2044 -0.21832,0.0244 -0.94269,-0.77711 z m -24.22648,0.13229 c -0.3291,-0.41964 -0.31975,-0.429 0.0999,-0.0999 0.25466,0.19972 0.46302,0.40808 0.46302,0.46302 0,0.21776 -0.21727,0.0776 -0.56292,-0.36313 z m -11.36336,-0.52916 -0.64143,-0.72761 0.72761,0.64143 c 0.68005,0.59952 0.84893,0.81378 0.64143,0.81378 -0.0474,0 -0.37482,-0.32742 -0.72761,-0.7276 z m -17.707054,-1.20727 c 0,-0.0455 0.386953,-0.43249 0.859896,-0.8599 l 0.859896,-0.77711 -0.777106,0.8599 c -0.724371,0.80154 -0.942686,0.98151 -0.942686,0.77711 z m -10.583333,-0.26459 c 0,-0.0455 0.386953,-0.43248 0.859895,-0.85989 l 0.859896,-0.77711 -0.777105,0.8599 c -0.724371,0.80154 -0.942686,0.98151 -0.942686,0.7771 z m 61.098727,-0.64481 -0.64144,-0.72761 0.72761,0.64144 c 0.40018,0.35279 0.7276,0.68021 0.7276,0.7276 0,0.20751 -0.21426,0.0386 -0.81377,-0.64143 z m -24.99555,-0.66146 -1.04589,-1.12448 1.12448,1.04589 c 1.04576,0.97266 1.24607,1.20307 1.04589,1.20307 -0.0432,0 -0.54925,-0.50602 -1.12448,-1.12448 z m -10.85211,0 -0.77711,-0.8599 0.8599,0.77711 c 0.80154,0.72437 0.98151,0.94269 0.7771,0.94269 -0.0455,0 -0.43249,-0.38696 -0.85989,-0.8599 z m -10.96357,-1.91823 c 0.34178,-0.3638 0.68094,-0.66146 0.7537,-0.66146 0.0728,0 -0.14734,0.29766 -0.48911,0.66146 -0.34178,0.3638 -0.680943,0.66146 -0.753704,0.66146 -0.07276,0 0.147342,-0.29766 0.489114,-0.66146 z m -10.451039,-0.39687 c 0.263389,-0.29104 0.53842,-0.52917 0.611181,-0.52917 0.07276,0 -0.08321,0.23813 -0.346598,0.52917 -0.263389,0.29104 -0.53842,0.52916 -0.611181,0.52916 -0.07276,0 0.08321,-0.23812 0.346598,-0.52916 z m 18.368519,-0.46302 -0.64144,-0.72761 0.72761,0.64143 c 0.68005,0.59952 0.84894,0.81378 0.64143,0.81378 -0.0474,0 -0.37481,-0.32742 -0.7276,-0.7276 z m 10.83419,0 c -0.32911,-0.41965 -0.31975,-0.42901 0.0999,-0.0999 0.44072,0.34564 0.58088,0.56292 0.36312,0.56292 -0.0549,0 -0.2633,-0.20836 -0.46302,-0.46302 z m 24.21799,-0.1323 -0.50403,-0.59531 0.59531,0.50403 c 0.32742,0.27722 0.59531,0.54511 0.59531,0.59531 0,0.21174 -0.21293,0.0554 -0.68659,-0.50403 z m -51.965491,-0.54581 c 0,-0.0455 0.386953,-0.43248 0.859896,-0.85989 l 0.859896,-0.77711 -0.777105,0.8599 c -0.724372,0.80154 -0.942687,0.98151 -0.942687,0.7771 z m 12.170831,-1.37242 c 0.34178,-0.3638 0.68094,-0.66145 0.7537,-0.66145 0.0728,0 -0.14734,0.29765 -0.48911,0.66145 -0.34178,0.36381 -0.68094,0.66146 -0.7537,0.66146 -0.0728,0 0.14734,-0.29765 0.48911,-0.66146 z m 12.95034,-0.33072 -0.9118,-0.99219 0.99219,0.9118 c 0.5457,0.50149 0.99219,0.94797 0.99219,0.99218 0,0.20205 -0.2239,0.0117 -1.07258,-0.91179 z m 24.34167,0 -0.9118,-0.99219 0.99219,0.9118 c 0.9235,0.84868 1.11384,1.07257 0.9118,1.07257 -0.0442,0 -0.4907,-0.44648 -0.99219,-0.99218 z m -35.47367,-0.26459 c -0.32911,-0.41964 -0.31975,-0.429 0.0999,-0.0999 0.44073,0.34564 0.58089,0.56291 0.36313,0.56291 -0.0549,0 -0.2633,-0.20836 -0.46302,-0.46302 z m -10.285004,-1.47185 c 0,-0.0455 0.386953,-0.43249 0.859896,-0.8599 l 0.859896,-0.7771 -0.777106,0.85989 c -0.724371,0.80155 -0.942686,0.98152 -0.942686,0.77711 z m 42.705074,-1.04169 -0.50403,-0.59531 0.59531,0.50403 c 0.32742,0.27721 0.59531,0.5451 0.59531,0.59531 0,0.21173 -0.21293,0.0554 -0.68659,-0.50403 z m -24.73343,-0.39687 -0.64144,-0.72761 0.72761,0.64143 c 0.68005,0.59952 0.84894,0.81378 0.64143,0.81378 -0.0474,0 -0.37481,-0.32742 -0.7276,-0.7276 z m -14.399769,-1.91823 c 0.263389,-0.29104 0.53842,-0.52917 0.611181,-0.52917 0.07276,0 -0.08321,0.23813 -0.346598,0.52917 -0.263389,0.29104 -0.53842,0.52916 -0.611181,0.52916 -0.07276,0 0.08321,-0.23812 0.346598,-0.52916 z m 35.958199,-0.59532 -0.50403,-0.59531 0.59531,0.50403 c 0.32742,0.27722 0.59531,0.54511 0.59531,0.59531 0,0.21174 -0.21293,0.0554 -0.68659,-0.50403 z m -24.60625,-0.26458 -0.50403,-0.59531 0.59531,0.50403 c 0.32742,0.27721 0.59531,0.5451 0.59531,0.59531 0,0.21173 -0.21293,0.0554 -0.68659,-0.50403 z m -8.3203,-1.85208 c 1.09643,-1.16819 1.33398,-1.37824 1.33398,-1.17957 0,0.0425 -0.56555,0.60801 -1.25677,1.25677 l -1.25678,1.17957 z m -24.595191,0.19843 c 0.341775,-0.3638 0.680939,-0.66145 0.7537,-0.66145 0.07276,0 -0.147342,0.29765 -0.489116,0.66145 -0.341775,0.36381 -0.68094,0.66146 -0.7537,0.66146 -0.07276,0 0.147342,-0.29765 0.489116,-0.66146 z m 54.489921,-0.85989 -0.9118,-0.99219 0.99219,0.9118 c 0.5457,0.50149 0.99219,0.94797 0.99219,0.99219 0,0.20204 -0.2239,0.0117 -1.07258,-0.9118 z m -24.34745,0 -0.64143,-0.7276 0.72761,0.64143 c 0.68005,0.59951 0.84893,0.81377 0.64143,0.81377 -0.0474,0 -0.37482,-0.32742 -0.72761,-0.7276 z m -27.496637,-1.47185 c 0,-0.0455 0.386953,-0.43249 0.859895,-0.8599 l 0.859896,-0.77711 -0.777105,0.8599 c -0.724371,0.80154 -0.942686,0.98151 -0.942686,0.77711 z m 48.134137,-1.96773 -0.64143,-0.72761 0.72761,0.64143 c 0.68005,0.59952 0.84893,0.81378 0.64143,0.81378 -0.0474,0 -0.37482,-0.32742 -0.72761,-0.7276 z M 83.127696,99.684375 c 0.341774,-0.363802 0.680939,-0.661458 0.753699,-0.661458 0.07276,0 -0.147341,0.297656 -0.489116,0.661458 -0.341774,0.363805 -0.680939,0.661455 -0.753699,0.661455 -0.07276,0 0.147342,-0.29765 0.489116,-0.661455 z m 42.054504,-1.124479 -0.9118,-0.992188 0.99219,0.911799 c 0.5457,0.501489 0.99219,0.947973 0.99219,0.992187 0,0.202041 -0.2239,0.01171 -1.07258,-0.911798 z M 86.434988,96.641667 c 0.263389,-0.291042 0.53842,-0.529167 0.61118,-0.529167 0.07276,0 -0.08321,0.238125 -0.346597,0.529167 -0.263389,0.291041 -0.538421,0.529166 -0.611181,0.529166 -0.07276,0 0.08321,-0.238125 0.346598,-0.529166 z m 36.222782,-0.33073 -0.50403,-0.595312 0.59531,0.504028 c 0.32742,0.277215 0.59531,0.545106 0.59531,0.595312 0,0.211734 -0.21293,0.05542 -0.68659,-0.504028 z M 89.742279,93.631355 c 0,-0.05494 0.20836,-0.263301 0.463021,-0.463021 0.419644,-0.329107 0.429002,-0.319749 0.0999,0.0999 -0.345644,0.440729 -0.562916,0.580887 -0.562916,0.363126 z m 29.348721,-0.627709 -0.64143,-0.727604 0.72761,0.641433 c 0.68005,0.599516 0.84893,0.813775 0.64143,0.813775 -0.0474,0 -0.37482,-0.327422 -0.72761,-0.727604 z M 62.022413,91.085417 c 0,-0.509323 0.05445,-0.717683 0.121,-0.463021 0.06655,0.254661 0.06655,0.67138 0,0.926042 -0.06655,0.254661 -0.121,0.0463 -0.121,-0.463021 z m 30.3657,0.181793 c 0,-0.04554 0.386953,-0.432488 0.859895,-0.859896 l 0.859896,-0.777106 -0.777105,0.859896 c -0.724371,0.801544 -0.942686,0.981512 -0.942686,0.777106 z m 23.527887,-1.173981 -0.64143,-0.727604 0.72761,0.641433 c 0.68005,0.599516 0.84893,0.813775 0.64143,0.813775 -0.0474,0 -0.37482,-0.327422 -0.72761,-0.727604 z M 95.959988,87.910417 c 0.716663,-0.727605 1.362555,-1.322917 1.435316,-1.322917 0.07276,0 -0.45407,0.595312 -1.170733,1.322917 -0.716663,0.727604 -1.362556,1.322916 -1.435316,1.322916 -0.07276,0 0.454069,-0.595312 1.170733,-1.322916 z m -33.957182,0 c 0,-0.363802 0.06005,-0.512631 0.133452,-0.330729 0.0734,0.181901 0.0734,0.479557 0,0.661458 -0.0734,0.181901 -0.133452,0.03307 -0.133452,-0.330729 z m 50.484604,-0.992188 -1.44617,-1.521354 1.52135,1.44617 c 1.41339,1.343538 1.64256,1.596538 1.44617,1.596538 -0.0413,0 -0.72596,-0.684609 -1.52135,-1.521354 z M 62.754779,85.429272 c 0,-0.05494 0.20836,-0.263302 0.463021,-0.463021 0.419644,-0.329107 0.429002,-0.319749 0.0999,0.0999 -0.345644,0.440729 -0.562916,0.580887 -0.562916,0.363126 z m 36.247917,-0.264584 c 0,-0.05494 0.208359,-0.263301 0.463021,-0.46302 0.419644,-0.329108 0.429002,-0.319749 0.0999,0.0999 -0.345644,0.440729 -0.562916,0.580887 -0.562916,0.363125 z m 5.506644,-2.726679 c 0.19099,-0.07643 0.4192,-0.06703 0.50711,0.02089 0.0879,0.08792 -0.0684,0.150452 -0.34726,0.138964 -0.30823,-0.0127 -0.37092,-0.07539 -0.15985,-0.159854 z"
         id="path2" /><path
         style="fill:#000000;fill-opacity:1"
         d="m 62.580122,213.86328 c -1.312372,-0.3127 -2.787654,-1.17064 -3.382219,-1.9669 -0.540172,-0.72343 -0.544685,-0.93654 -0.614991,-29.04053 l -0.07083,-28.31176 1.922909,-1.78759 c 1.0576,-0.98318 8.352284,-7.65982 16.210409,-14.83699 7.858125,-7.17716 15.418594,-14.08726 16.801042,-15.35576 9.096558,-8.34684 11.262748,-10.30467 11.404948,-10.30796 0.14127,-0.003 6.66255,5.91315 21.54548,19.54708 2.47924,2.27118 9.05902,8.28529 14.62173,13.36469 l 10.114,9.23527 -0.0696,28.38237 c -0.0691,28.14757 -0.0741,28.38855 -0.61256,29.12931 -0.2986,0.41082 -1.13204,1.0446 -1.85208,1.40841 l -1.30917,0.66145 -13.36145,0.0816 c -9.32266,0.057 -13.66757,-0.008 -14.37416,-0.2152 -1.78739,-0.5239 -1.76543,-0.32486 -1.76543,-15.99751 V 183.95417 H 104.82353 91.858946 v 14.00569 c 0,8.63703 -0.100775,14.27075 -0.2629,14.69717 -0.542243,1.42621 -0.921449,1.46209 -15.140581,1.43255 -7.171575,-0.0149 -13.415479,-0.11673 -13.875343,-0.2263 z M 42.9299,153.23451 c -3.1941,-0.97257 -5.622026,-4.3737 -5.646279,-7.90951 -0.01811,-2.64049 0.784958,-4.11414 3.820896,-7.01146 3.122637,-2.98005 7.526742,-7.03054 10.802346,-9.935 3.062288,-2.71531 9.845421,-8.99446 10.123287,-9.37113 0.110777,-0.15017 0.189297,-7.41678 0.174489,-16.14803 -0.01655,-9.75998 0.07252,-16.129798 0.231244,-16.536463 0.141992,-0.363802 0.522191,-0.899584 0.844886,-1.190625 0.529174,-0.477268 1.031279,-0.53794 5.119467,-0.618612 5.248349,-0.103565 6.296492,0.09826 7.066208,1.360628 0.485894,0.79689 0.515581,1.396734 0.516513,10.436629 6.86e-4,6.650543 0.08801,9.591143 0.284812,9.591143 0.245899,0 4.72391,-4.02205 11.63247,-10.44802 1.09693,-1.020306 2.994415,-2.74807 4.216634,-3.839477 1.222219,-1.091406 3.539419,-3.221488 5.149332,-4.733516 3.703965,-3.478757 5.444215,-4.398194 7.944715,-4.197479 2.2166,0.177928 3.86708,1.101143 6.74243,3.771463 1.25364,1.164253 5.48635,5.033855 9.40601,8.599116 3.91966,3.56526 8.085,7.375263 9.2563,8.466663 3.16672,2.9507 10.56741,9.71389 12.44949,11.37709 0.9057,0.80036 5.20572,4.72942 9.5556,8.73125 4.34988,4.00182 9.09696,8.33906 10.54906,9.63832 4.79294,4.28844 7.81988,7.38985 8.49571,8.7047 1.64905,3.20828 0.69915,7.22055 -2.32161,9.8062 -2.1526,1.84255 -5.86699,2.25909 -8.55244,0.95909 -0.66884,-0.32378 -2.84938,-2.08264 -4.84565,-3.90858 -1.99627,-1.82593 -5.46881,-4.9984 -7.71677,-7.04991 -2.24795,-2.05152 -5.10734,-4.68253 -6.3542,-5.8467 -1.24686,-1.16417 -4.04917,-3.72401 -6.22736,-5.68854 -2.17819,-1.96453 -4.98257,-4.52437 -6.23196,-5.68854 -5.76442,-5.37124 -24.44525,-22.35293 -24.592,-22.3552 -0.0728,-0.001 -1.38845,1.1588 -2.92375,2.57761 -1.53531,1.41882 -4.684526,4.30608 -6.998268,6.41613 -9.167401,8.36035 -11.265959,10.27584 -15.190199,13.86507 -2.242812,2.05135 -5.745635,5.27753 -7.784051,7.1693 -2.038415,1.89178 -5.323074,4.89734 -7.299242,6.67903 -1.976168,1.7817 -4.922871,4.46061 -6.548228,5.95313 -6.834574,6.27601 -8.216754,7.45253 -9.347929,7.95703 -1.377546,0.61438 -4.432863,0.83408 -5.801963,0.4172 z"
         id="path1" /></g></g></svg>
