<?xml version="1.0" encoding="UTF-8" standalone="no"?>
<!-- Created with Inkscape (http://www.inkscape.org/) -->

<svg
   width="165.5442mm"
   height="183.52049mm"
   viewBox="0 0 165.5442 183.52049"
   version="1.1"
   id="svg1"
   xml:space="preserve"
   xmlns="http://www.w3.org/2000/svg"
   xmlns:svg="http://www.w3.org/2000/svg"><defs
     id="defs1" /><g
     id="layer1"
     transform="translate(-21.909195,-73.307829)"><g
       id="g2"><circle
         style="fill:#5fd35f;stroke-width:14.382;stroke-opacity:0.996078"
         id="path2"
         cx="104.6813"
         cy="174.05621"
         r="82.772102" /><path
         style="fill:#2ca02c;stroke:#ffffff;stroke-width:2.11667;stroke-dasharray:none"
         d="m 112.61216,237.55281 c -0.0204,-0.0324 -0.14184,-0.20026 -0.26972,-0.37314 -0.12786,-0.17288 -0.35547,-0.4833 -0.50578,-0.68984 -1.38553,-1.9038 -4.04809,-5.37201 -5.81932,-7.58015 -13.541159,-16.88128 -28.460005,-30.48615 -45.187345,-41.20742 -1.350506,-0.86559 -2.847252,-1.79249 -4.335056,-2.68459 -5.952207,-3.56897 -12.487392,-6.94537 -18.88798,-9.75847 -0.384064,-0.1688 -0.696791,-0.30887 -0.694952,-0.31125 0.0092,-0.012 1.515371,-0.33288 2.765234,-0.58919 0.775177,-0.15852 1.52828,-0.31683 1.673743,-0.35086 1.810311,-0.4237 12.870263,-2.57009 13.655369,-2.64997 0.0523,-0.005 0.366232,-0.0539 0.697908,-0.10788 0.331657,-0.054 0.633789,-0.0999 0.671397,-0.10202 0.03757,-0.002 0.279837,-0.0361 0.538248,-0.0758 0.25842,-0.0396 0.488472,-0.0724 0.511233,-0.0726 0.02275,-3.3e-4 0.216575,-0.0255 0.430718,-0.056 0.214133,-0.0305 0.4083,-0.0558 0.431493,-0.056 0.02314,-4.2e-4 0.187665,-0.02 0.365478,-0.044 0.177842,-0.0239 0.354101,-0.0453 0.391709,-0.0474 0.03757,-0.002 0.177773,-0.0171 0.311464,-0.0334 0.133606,-0.0167 0.285976,-0.033 0.338375,-0.0372 0.05249,-0.004 0.186651,-0.0177 0.298352,-0.0298 1.589888,-0.17317 3.796085,-0.29198 5.349233,-0.28807 6.641309,0.0167 12.270247,1.60871 18.807187,5.31915 4.665331,2.64811 9.964561,6.48159 17.073702,12.35118 0.52197,0.43095 0.95769,0.7845 0.96826,0.78565 0.0106,0.001 0.21464,-0.52981 0.45348,-1.17989 1.0262,-2.79312 2.34597,-6.25046 3.58713,-9.39701 9.27564,-23.51522 20.32976,-45.73252 33.11546,-66.55757 0.58503,-0.95289 2.10256,-3.39748 2.36103,-3.80338 0.14414,-0.22636 0.22371,-0.35205 0.87794,-1.38681 0.20821,-0.32931 0.46981,-0.74093 0.58133,-0.91472 0.11152,-0.17378 0.3073,-0.47925 0.43505,-0.67881 0.26274,-0.41044 0.59707,-0.92929 0.98733,-1.53227 0.29727,-0.45931 0.67016,-1.03572 1.05388,-1.62905 0.14086,-0.21782 0.38955,-0.60198 0.55263,-0.8537 0.1631,-0.2517 0.41638,-0.64264 0.56288,-0.86873 1.79321,-2.767615 3.43369,-5.239762 4.9695,-7.488865 4.71209,-6.900553 7.84067,-10.255279 11.67466,-12.518538 1.7667,-1.042907 3.98855,-1.95833 6.48282,-2.670981 0.10087,-0.02874 0.21849,-0.06378 0.26139,-0.0778 0.043,-0.01344 0.20829,-0.05935 0.36753,-0.100735 0.15922,-0.04148 0.30685,-0.08214 0.32805,-0.09043 0.0212,-0.0082 0.2107,-0.05758 0.42112,-0.109499 0.21042,-0.05192 0.40023,-0.101271 0.42181,-0.109634 0.0216,-0.0083 0.27713,-0.06985 0.56789,-0.13675 0.29078,-0.0668 0.55605,-0.131397 0.58952,-0.143492 0.32672,-0.118182 6.40113,-1.315478 9.63041,-1.898214 2.09501,-0.378084 2.01656,-0.364902 2.02355,-0.338654 0.003,0.01137 -0.30792,0.544128 -0.69096,1.184042 -23.16383,38.6978 -42.38677,79.00463 -57.51184,120.5913 -0.75224,2.06831 -1.25894,3.4751 -1.64339,4.5627 -0.10098,0.2857 -0.20612,0.57981 -0.23366,0.65358 -0.10292,0.27579 -0.90519,2.56524 -1.97503,5.63618 -0.24703,0.70909 -1.63901,4.80207 -1.99826,5.8757 -0.15236,0.45533 -0.34183,1.02085 -0.42106,1.2567 -0.30519,0.90861 -1.67007,5.07196 -2.06654,6.30365 -0.0783,0.24329 -0.2278,0.70775 -0.33219,1.03212 -0.56923,1.76867 -1.50178,4.73203 -2.32582,7.39073 -0.60462,1.95077 -1.51642,4.96298 -2.23599,7.38681 -0.2179,0.73397 -0.40004,1.34023 -0.40477,1.34724 -0.005,0.007 -0.0254,-0.0137 -0.0458,-0.0461 z"
         id="path1" /></g></g></svg>
