<?xml version="1.0" encoding="UTF-8" standalone="no"?>
<!-- Created with Inkscape (http://www.inkscape.org/) -->

<svg
   width="187.52943mm"
   height="109.41522mm"
   viewBox="0 0 187.52943 109.41522"
   version="1.1"
   id="svg1"
   xml:space="preserve"
   xmlns="http://www.w3.org/2000/svg"
   xmlns:svg="http://www.w3.org/2000/svg"><defs
     id="defs1" /><g
     id="layer1"
     transform="translate(-12.580482,-92.640355)"><g
       id="g3"><ellipse
         style="fill:#666666;fill-opacity:0.996078;stroke-width:2.22866;stroke-opacity:0.996078"
         id="path2"
         cx="106.34521"
         cy="188.30147"
         rx="93.764725"
         ry="13.754107" /><path
         style="fill:#b3b3b3;fill-opacity:0.996078;stroke-width:1.98438;stroke-opacity:0.996078"
         d="m 35.235022,184.8371 c 0,0 2.905936,-73.14978 70.734958,-73.14978 68.87901,0 71.48543,73.67154 71.48543,73.67154 0,0 -1.24611,3.6289 -17.99702,5.24937 -37.06921,3.58604 -66.505485,5.98068 -114.264507,-0.47101 -10.305541,-1.39216 -9.958861,-5.30012 -9.958861,-5.30012 z"
         id="path1" /><path
         style="fill:#cccccc;fill-opacity:0.996078;stroke-width:1.98438;stroke-opacity:0.996078"
         d="m 100.4067,111.97485 c 0,0 3.24901,-3.2951 3.03913,-5.32929 -0.27627,-2.6777 -2.46757,-4.68038 -5.426807,-5.98174 -4.884714,-2.148119 -0.970552,-5.117655 0.596415,-6.109186 2.291992,-1.450305 5.200302,-1.997829 7.910992,-1.904106 2.94134,0.101698 6.02088,0.950706 8.42095,2.654089 3.55679,2.524332 1.01608,4.924333 -0.99868,5.843893 -2.75267,1.25635 -4.50914,3.26154 -4.57893,5.75844 -0.0581,2.07906 3.36159,5.25665 3.36159,5.25665 z"
         id="path3" /></g></g></svg>
